<?xml version="1.0" encoding="UTF-8" standalone="no"?>
<svg
   version="1.0"
   width="100%"
   height="100%"
   viewBox="0 0 3717.000000 2417.000000"
   preserveAspectRatio="xMidYMid meet"
   id="svg84"
   sodipodi:docname="SilbergLabLogo_animated.svg"
   inkscape:version="1.4.3 (0d15f75, 2025-12-25)"
   xmlns:inkscape="http://www.inkscape.org/namespaces/inkscape"
   xmlns:sodipodi="http://sodipodi.sourceforge.net/DTD/sodipodi-0.dtd"
   xmlns="http://www.w3.org/2000/svg"
   xmlns:svg="http://www.w3.org/2000/svg">
  <defs
     id="defs84">
    <style
       type="text/css"
       id="style1">
            .bubble {
              animation: bubble-float var(--dur, 3s) ease-in-out var(--delay, 0s) infinite;
            }
            @keyframes bubble-float {
              0% { transform: translate(0, 0); opacity: 1; }
              70% { opacity: 1; }
              100% { transform: translate(0, var(--dist, 800px)); opacity: 0; }
            }
            .zap-group {
              opacity: 0;
              animation: zap-flash 2s ease-in-out infinite;
            }
            .zap-group.d1 {
              animation-delay: 0s;
            }
            .zap-group.d2 {
              animation-delay: 0.5s;
            }
            .zap-group.d3 {
              animation-delay: 1.0s;
            }
            @keyframes zap-flash {
              0% { opacity: 0; }
              10% { opacity: 1; }
              20% { opacity: 0.2; }
              30% { opacity: 1; }
              45% { opacity: 0; }
              100% { opacity: 0; }
            }
        </style>
  </defs>
  <sodipodi:namedview
     id="namedview84"
     pagecolor="#ffffff"
     bordercolor="#000000"
     borderopacity="0.25"
     inkscape:showpageshadow="2"
     inkscape:pageopacity="0.0"
     inkscape:pagecheckerboard="0"
     inkscape:deskcolor="#d1d1d1"
     inkscape:document-units="pt"
     inkscape:zoom="0.13618066"
     inkscape:cx="1644.8738"
     inkscape:cy="1141.8655"
     inkscape:window-width="1326"
     inkscape:window-height="784"
     inkscape:window-x="0"
     inkscape:window-y="38"
     inkscape:window-maximized="0"
     inkscape:current-layer="g84" />
  <metadata
     id="metadata1">
Created by potrace 1.16, written by Peter Selinger 2001-2019
</metadata>
  <g
     transform="translate(0.000000,2417.000000) scale(0.100000,-0.100000)"
     fill="#6AB45E"
     stroke="none"
     id="g84">
    <g
       class="bubble"
       style="--dur:3.0s;--delay:0.0s;--dist:800px"
       id="g1">
      <path
         d="M28203 21201 c-29 -16 -60 -36 -69 -46 -9 -9 -27 -23 -39 -31 -12 -8 -35 -37 -50 -65 -26 -49 -27 -56 -22 -148 7 -134 29 -184 105 -232 104 -67 121 -73 207 -72 44 0 93 6 109 12 48 19 102 68 148 134 l43 62 0 102 c0 91 -2 105 -23 130 -12 15 -38 51 -57 79 -38 58 -79 79 -167 89 -29 3 -71 8 -93 10 -31 4 -52 -2 -92 -24z"
         id="path3" />
    </g>
    <g
       class="bubble"
       style="--dur:3.5s;--delay:0.4s;--dist:900px"
       id="g2">
      <path
         d="M30340 20406 c-84 -19 -115 -40 -170 -118 -47 -67 -50 -75 -50 -132 1 -101 13 -135 67 -184 63 -57 120 -82 191 -82 81 0 125 15 179 62 68 58 81 82 89 170 10 111 -8 153 -94 222 -106 83 -110 85 -212 62z"
         id="path4" />
    </g>
    <g
       class="bubble"
       style="--dur:2.8s;--delay:0.8s;--dist:700px"
       id="g3">
      <path
         d="M28997 19018 c-56 -15 -110 -81 -125 -154 -13 -67 -10 -98 19 -170 25 -64 48 -75 155 -82 125 -7 183 19 225 100 53 103 -11 255 -128 305 -37 15 -91 15 -146 1z"
         id="path7" />
    </g>
    <g
       class="bubble"
       style="--dur:3.2s;--delay:1.2s;--dist:850px"
       id="g4">
      <path
         d="M29935 18879 c-22 -4 -58 -8 -81 -8 -86 -2 -127 -26 -220 -129 -115 -130 -118 -138 -118 -297 0 -147 7 -172 73 -255 23 -29 41 -56 41 -61 0 -20 66 -71 130 -101 59 -28 77 -31 187 -36 120 -4 122 -4 183 26 71 36 200 143 224 187 31 58 66 179 66 230 0 95 -79 281 -142 333 -18 15 -40 35 -50 44 -28 28 -76 49 -146 64 -74 15 -89 16 -147 3z"
         id="path8" />
    </g>
    <g
       class="bubble"
       style="--dur:3.0s;--delay:0.3s;--dist:750px"
       id="g5">
      <path
         d="m 29204,20122.632 c -22,-4 -58,-8 -81,-8 -86,-2 -127,-26 -220,-129 -115,-130 -118,-138 -118,-297 0,-147 7,-172 73,-255 23,-29 41,-56 41,-61 0,-20 66,-71 130,-101 59,-28 77,-31 187,-36 120,-4 122,-4 183,26 71,36 200,143 224,187 31,58 66,179 66,230 0,95 -79,281 -142,333 -18,15 -40,35 -50,44 -28,28 -76,49 -146,64 -74,15 -89,16 -147,3 z"
         id="path8-3" />
    </g>
    <g
       class="bubble"
       style="--dur:2.7s;--delay:0.7s;--dist:800px"
       id="g6">
      <path
         d="m 29808.358,19897.286 c -22,-4 -58,-8 -81,-8 -86,-2 -127,-26 -220,-129 -115,-130 -118,-138 -118,-297 0,-147 7,-172 73,-255 23,-29 41,-56 41,-61 0,-20 66,-71 130,-101 59,-28 77,-31 187,-36 120,-4 122,-4 183,26 71,36 200,143 224,187 31,58 66,179 66,230 0,95 -79,281 -142,333 -18,15 -40,35 -50,44 -28,28 -76,49 -146,64 -74,15 -89,16 -147,3 z"
         id="path8-0" />
    </g>
    <g
       class="bubble"
       style="--dur:2.5s;--delay:1.0s;--dist:600px"
       id="g7">
      <path
         d="M28312 18517 c-63 -65 -34 -167 53 -187 62 -15 71 -12 109 24 32 30 36 39 36 84 0 45 -4 53 -35 81 -29 25 -44 31 -83 31 -41 0 -53 -5 -80 -33z"
         id="path9" />
    </g>
    <path
       d="M17480 17659 c-3244 -6 -3568 -10 -3645 -39 -15 -6 -108 -22 -208 -36 -100 -14 -218 -34 -262 -45 -44 -12 -100 -25 -125 -29 -122 -22 -210 -45 -257 -67 -29 -13 -96 -32 -150 -43 -55 -12 -128 -35 -168 -55 -38 -18 -91 -37 -118 -41 -29 -4 -61 -17 -82 -34 -19 -15 -55 -33 -81 -39 -25 -7 -73 -25 -105 -42 -33 -16 -81 -38 -109 -49 -27 -11 -103 -49 -169 -84 -66 -36 -139 -70 -161 -76 -22 -6 -55 -23 -73 -39 -17 -15 -57 -42 -88 -59 -30 -17 -64 -41 -75 -53 -10 -12 -44 -34 -74 -51 -62 -33 -142 -90 -184 -130 -16 -16 -33 -28 -39 -28 -6 0 -33 -17 -61 -38 -28 -21 -70 -49 -92 -61 -23 -13 -48 -34 -55 -48 -7 -13 -27 -32 -43 -43 -17 -10 -59 -48 -92 -82 -34 -35 -77 -76 -97 -91 -40 -31 -172 -161 -305 -303 -52 -54 -106 -106 -120 -115 -15 -8 -35 -31 -44 -51 -9 -20 -28 -44 -41 -55 -14 -10 -35 -39 -47 -63 -12 -25 -39 -64 -59 -87 -41 -48 -92 -114 -124 -160 -12 -17 -40 -56 -63 -85 -22 -29 -43 -61 -47 -71 -10 -28 -87 -137 -96 -137 -5 0 -25 -33 -45 -72 -46 -91 -115 -215 -143 -254 -11 -16 -28 -52 -37 -80 -9 -28 -29 -68 -45 -90 -16 -21 -36 -64 -45 -95 -9 -31 -28 -66 -41 -79 -14 -13 -27 -39 -31 -59 -10 -64 -24 -98 -49 -121 -18 -17 -30 -48 -46 -119 -12 -53 -35 -121 -51 -151 -15 -30 -37 -90 -47 -133 -11 -43 -27 -89 -36 -103 -9 -14 -23 -58 -30 -99 -8 -41 -30 -127 -49 -192 -19 -65 -42 -168 -51 -228 -9 -61 -23 -130 -31 -155 -34 -101 -54 -252 -54 -410 0 -125 -20 -172 -84 -200 -42 -19 -55 -20 -348 -9 -485 18 -1251 -2 -1413 -36 -38 -9 -113 -22 -165 -31 -52 -8 -124 -22 -160 -29 -36 -8 -94 -16 -130 -19 -42 -4 -83 -16 -120 -35 -30 -15 -91 -36 -135 -46 -44 -9 -102 -30 -130 -45 -27 -16 -70 -34 -95 -40 -43 -11 -146 -73 -236 -139 -23 -17 -45 -31 -50 -31 -5 0 -22 -12 -37 -26 -15 -14 -63 -52 -107 -85 -92 -70 -236 -223 -284 -301 -18 -30 -44 -84 -59 -119 -14 -35 -37 -91 -51 -124 -23 -55 -47 -150 -92 -362 -21 -102 -15 -239 21 -452 14 -81 25 -158 25 -173 0 -56 144 -453 210 -580 30 -57 56 -108 80 -158 44 -90 142 -264 189 -334 28 -41 71 -110 139 -224 23 -39 47 -74 52 -77 6 -4 17 -21 24 -39 8 -19 30 -46 50 -61 20 -15 45 -48 56 -73 19 -42 36 -66 122 -166 21 -24 38 -47 38 -52 0 -4 19 -27 43 -51 73 -74 102 -109 137 -166 18 -30 44 -60 57 -66 13 -6 33 -26 44 -45 11 -19 35 -44 53 -57 19 -13 41 -35 50 -49 8 -15 38 -49 67 -76 28 -27 59 -62 69 -77 31 -49 274 -309 528 -565 90 -90 174 -179 187 -198 13 -19 45 -51 72 -73 27 -21 61 -53 74 -71 32 -43 77 -88 128 -129 25 -19 53 -55 67 -85 19 -39 36 -58 73 -80 29 -17 55 -42 67 -65 10 -20 55 -73 99 -117 94 -95 232 -254 258 -297 11 -17 53 -67 94 -112 41 -46 85 -100 97 -121 12 -22 35 -53 52 -69 38 -40 119 -142 171 -219 23 -33 53 -74 65 -90 13 -17 38 -59 56 -95 19 -37 40 -69 47 -73 7 -4 18 -22 25 -40 8 -18 31 -52 52 -75 21 -24 38 -49 38 -57 0 -7 18 -41 40 -74 22 -33 49 -84 59 -114 10 -29 30 -70 44 -91 14 -20 34 -64 46 -98 11 -33 34 -76 50 -95 17 -18 36 -53 42 -76 7 -24 25 -58 41 -76 15 -18 30 -45 33 -60 14 -71 27 -118 44 -156 69 -151 91 -443 43 -557 -11 -24 -22 -66 -26 -93 -7 -46 -16 -58 -98 -142 l-91 -93 -121 -41 c-168 -57 -228 -69 -406 -80 -200 -12 -519 9 -577 38 -21 11 -81 29 -133 41 -123 29 -345 98 -390 123 -19 10 -64 27 -100 37 -111 33 -163 52 -220 81 -88 45 -152 53 -198 23 -23 -14 -92 -144 -92 -173 0 -8 -8 -29 -19 -46 -25 -41 -61 -145 -61 -176 0 -41 44 -86 101 -103 28 -8 74 -28 102 -44 29 -16 75 -36 102 -44 28 -8 82 -31 120 -51 44 -23 104 -44 161 -55 50 -10 106 -27 124 -36 18 -9 94 -30 169 -46 75 -15 151 -35 168 -44 36 -18 187 -46 363 -68 174 -22 596 1 787 43 66 15 237 84 270 109 13 11 45 27 71 35 26 9 71 35 101 59 78 61 211 194 211 209 0 7 20 38 45 68 31 38 51 75 65 124 12 39 34 103 50 142 41 100 53 216 48 484 -4 184 -9 245 -27 335 -13 61 -30 117 -38 127 -8 9 -23 48 -33 88 -10 39 -26 82 -35 97 -9 14 -30 63 -45 109 -16 47 -38 97 -49 113 -11 15 -29 53 -41 84 -11 30 -33 73 -47 94 -14 21 -32 57 -40 80 -8 24 -27 52 -43 63 -20 14 -32 35 -40 71 -7 28 -27 70 -46 95 -18 24 -49 77 -68 117 -19 40 -53 93 -74 118 -22 24 -54 71 -73 104 -36 65 -116 175 -135 187 -7 5 -25 29 -40 55 -15 26 -46 71 -68 98 -23 28 -62 80 -89 116 -97 131 -195 254 -237 297 -19 19 -42 45 -50 58 -38 56 -364 415 -532 584 -36 38 -76 86 -87 109 -12 23 -26 41 -32 41 -15 0 -62 46 -262 252 -70 73 -170 176 -222 229 -52 53 -95 101 -95 107 0 6 -11 17 -25 24 -13 7 -45 38 -71 68 -25 30 -84 96 -130 145 -46 50 -102 113 -126 141 -24 28 -101 113 -172 190 -71 76 -135 153 -142 171 -8 17 -29 44 -48 58 -20 15 -38 36 -41 47 -4 10 -27 42 -52 70 -24 28 -52 65 -61 84 -8 19 -19 34 -23 34 -5 0 -21 21 -36 48 -15 26 -38 58 -51 72 -39 41 -90 112 -118 164 -14 27 -37 59 -50 73 -13 13 -33 41 -43 61 -11 20 -31 48 -45 61 -14 13 -28 36 -31 52 -4 16 -22 52 -41 79 -19 27 -43 74 -55 102 -11 29 -33 69 -49 89 -16 20 -37 63 -48 95 -11 32 -33 81 -50 108 -17 26 -34 62 -38 78 -3 17 -19 51 -35 76 -16 25 -29 54 -29 65 0 10 -15 80 -34 155 -28 110 -36 165 -41 280 l-6 143 37 112 c35 105 127 298 145 305 4 2 25 27 45 55 48 67 144 167 159 167 7 0 39 20 70 45 32 25 83 54 114 66 31 11 70 29 86 39 55 34 376 134 465 145 30 4 88 16 127 27 112 30 253 39 708 45 496 7 1103 -11 1147 -33 34 -17 64 -74 72 -134 3 -25 11 -121 16 -215 12 -196 23 -276 50 -360 10 -33 28 -124 39 -202 15 -104 28 -157 46 -193 14 -28 37 -100 50 -160 13 -60 33 -127 45 -149 11 -22 27 -68 34 -102 8 -33 26 -77 40 -98 14 -20 30 -61 36 -91 7 -30 27 -80 45 -110 18 -30 38 -75 45 -100 6 -25 23 -65 37 -90 33 -59 87 -158 132 -245 20 -38 51 -91 69 -116 18 -26 32 -50 32 -55 0 -4 12 -22 26 -41 14 -19 37 -62 51 -96 13 -35 37 -73 54 -87 29 -25 39 -39 113 -166 20 -34 47 -69 61 -78 13 -9 34 -34 45 -56 11 -21 34 -47 51 -57 16 -10 43 -39 59 -64 16 -26 47 -64 70 -85 23 -21 56 -63 75 -94 18 -30 55 -71 80 -90 26 -19 63 -58 83 -86 21 -28 69 -77 107 -107 39 -31 81 -73 94 -93 14 -19 52 -55 86 -79 33 -24 70 -54 80 -66 11 -12 46 -39 77 -61 32 -21 64 -51 72 -67 9 -16 30 -35 49 -44 33 -16 86 -55 174 -130 25 -21 62 -46 83 -57 21 -11 42 -24 45 -30 3 -6 23 -19 43 -29 20 -10 50 -31 65 -45 16 -15 52 -38 80 -52 29 -15 61 -34 72 -44 21 -19 98 -60 555 -295 82 -42 272 -125 287 -125 10 0 38 -10 63 -21 25 -12 90 -36 145 -55 55 -18 145 -49 200 -68 55 -19 115 -38 135 -41 19 -4 47 -14 64 -22 16 -8 82 -24 148 -34 65 -11 144 -28 176 -39 70 -24 148 -37 272 -45 52 -3 156 -15 230 -26 74 -11 205 -24 290 -31 115 -8 1932 -12 7005 -12 3768 -1 7028 2 7245 5 331 5 402 9 439 23 25 9 101 21 170 26 352 28 366 30 486 74 22 7 100 24 174 36 89 14 150 29 183 46 28 14 98 38 156 54 150 39 313 95 352 119 36 22 217 104 257 116 24 7 65 27 91 43 26 16 70 37 99 46 28 10 68 30 88 46 20 16 58 36 84 45 27 8 59 27 72 41 13 15 47 36 75 49 28 13 55 28 59 35 4 6 35 25 69 41 33 16 84 45 111 64 28 19 72 49 99 67 26 18 67 47 90 65 22 18 71 52 107 78 37 25 83 63 102 84 19 22 56 51 81 66 25 15 77 57 114 93 38 37 100 93 138 125 39 32 78 71 89 87 10 15 31 35 47 45 15 9 28 20 28 25 0 5 42 51 93 102 136 139 212 225 261 298 24 36 64 80 90 98 27 20 53 48 61 69 8 20 31 53 49 74 19 21 42 53 52 71 9 18 26 43 38 56 27 30 97 141 136 216 16 33 36 66 44 75 8 9 26 42 41 73 15 31 37 64 49 72 13 8 28 34 36 61 7 25 26 64 42 87 17 22 39 68 50 101 11 33 31 77 44 96 14 20 34 68 46 106 12 39 31 86 44 106 12 19 29 58 39 85 9 27 25 64 36 82 18 31 49 141 64 226 3 22 18 61 31 87 23 43 64 205 64 254 0 11 9 38 21 59 15 28 27 85 40 190 19 146 32 220 65 356 12 52 16 156 21 525 6 494 -3 686 -36 815 -11 41 -27 147 -36 234 -12 114 -24 184 -45 245 -15 47 -41 151 -56 231 -15 80 -34 153 -42 162 -8 9 -23 53 -33 98 -10 44 -30 97 -44 118 -15 23 -33 76 -46 138 -13 62 -33 121 -54 159 -18 33 -38 86 -45 118 -7 37 -22 70 -39 90 -16 18 -34 50 -41 72 -7 22 -25 60 -40 85 -15 25 -33 61 -40 80 -23 59 -112 223 -135 250 -12 14 -52 82 -88 151 -36 70 -77 138 -91 152 -13 13 -36 47 -49 74 -14 27 -33 55 -42 63 -9 7 -23 27 -32 44 -9 17 -32 47 -52 67 -50 49 -105 118 -124 154 -8 17 -30 44 -47 60 -17 17 -38 43 -47 58 -26 51 -429 439 -613 591 -36 29 -87 75 -115 102 -27 27 -71 62 -96 79 -113 73 -237 161 -278 197 -24 21 -50 38 -57 38 -7 0 -33 16 -59 35 -25 20 -74 49 -107 65 -34 17 -68 36 -77 44 -9 7 -87 48 -173 90 -87 43 -160 81 -163 85 -2 5 -35 21 -72 37 -38 15 -84 38 -103 51 -20 12 -67 30 -105 39 -81 18 -101 26 -136 54 -14 12 -55 27 -91 35 -36 7 -88 25 -116 39 -28 14 -92 35 -142 46 -50 11 -117 31 -148 44 -31 13 -113 33 -182 46 -69 12 -143 28 -165 35 -68 23 -117 34 -200 45 -44 6 -128 22 -187 36 -74 17 -163 27 -290 34 -356 20 -5999 29 -11458 19z m11350 -561 c58 -9 159 -21 225 -27 193 -18 324 -38 420 -64 50 -14 134 -32 188 -41 54 -10 119 -26 145 -37 26 -11 92 -31 147 -43 55 -13 134 -39 175 -58 78 -37 215 -88 287 -107 23 -7 55 -22 71 -36 16 -13 62 -37 103 -53 41 -17 94 -41 119 -55 25 -14 56 -28 70 -32 14 -4 46 -23 72 -41 25 -19 66 -43 90 -54 25 -11 55 -28 69 -38 13 -11 47 -31 75 -45 28 -14 65 -37 82 -51 16 -15 34 -26 40 -26 6 0 29 -16 52 -35 23 -19 68 -49 101 -66 32 -18 59 -36 59 -40 0 -5 19 -21 43 -35 23 -15 46 -33 50 -41 5 -8 22 -23 39 -32 28 -18 53 -38 176 -143 30 -27 60 -48 67 -48 15 0 49 -37 69 -77 9 -17 40 -50 68 -73 29 -23 80 -73 113 -112 33 -39 101 -114 151 -167 51 -53 99 -109 107 -126 9 -16 41 -55 71 -87 31 -31 64 -76 75 -100 10 -23 33 -56 51 -73 18 -16 43 -52 57 -80 13 -27 34 -64 46 -81 109 -154 326 -581 421 -831 36 -94 66 -174 66 -178 0 -3 11 -30 25 -60 14 -30 30 -82 36 -117 6 -34 23 -95 39 -134 16 -40 38 -124 49 -187 12 -64 26 -128 32 -144 22 -57 40 -151 49 -253 5 -58 16 -188 25 -290 8 -102 23 -225 32 -273 15 -79 16 -113 5 -347 -7 -143 -19 -308 -27 -367 -8 -59 -21 -174 -30 -254 -10 -96 -24 -171 -40 -218 -14 -39 -29 -101 -35 -138 -11 -78 -40 -194 -69 -273 -11 -30 -20 -66 -21 -80 0 -14 -13 -52 -28 -85 -16 -33 -39 -91 -51 -130 -13 -38 -35 -92 -51 -120 -16 -27 -36 -77 -45 -110 -9 -33 -30 -79 -46 -102 -17 -24 -39 -68 -49 -98 -11 -31 -35 -81 -55 -113 -19 -32 -35 -63 -35 -69 0 -6 -11 -24 -24 -40 -14 -16 -40 -59 -58 -95 -49 -97 -84 -146 -117 -163 -30 -15 -34 -22 -47 -85 -6 -33 -46 -87 -126 -171 -21 -22 -38 -46 -38 -53 0 -7 -14 -25 -31 -42 -17 -16 -43 -47 -57 -69 -14 -22 -57 -71 -95 -110 -38 -38 -80 -86 -93 -105 -30 -47 -256 -271 -300 -298 -19 -12 -134 -113 -211 -186 -68 -65 -131 -113 -197 -153 -17 -10 -51 -37 -76 -60 -30 -28 -61 -45 -91 -52 -29 -7 -51 -20 -66 -38 -36 -47 -72 -73 -183 -133 -41 -22 -93 -51 -116 -63 -22 -12 -55 -34 -72 -49 -18 -14 -57 -36 -87 -47 -31 -12 -86 -37 -123 -56 -89 -46 -231 -111 -262 -120 -14 -4 -61 -25 -105 -46 -44 -21 -109 -46 -145 -55 -36 -9 -90 -27 -120 -39 -30 -13 -73 -26 -95 -30 -22 -4 -97 -24 -166 -46 -70 -21 -176 -45 -235 -54 -60 -8 -133 -22 -163 -31 -156 -45 -272 -54 -848 -65 -546 -11 -11039 -16 -13238 -6 -1124 5 -1423 18 -1561 70 -23 9 -105 25 -183 37 -85 12 -164 29 -199 44 -31 13 -95 32 -142 41 -47 10 -106 28 -131 41 -25 12 -84 32 -130 44 -110 28 -589 246 -679 310 -14 10 -52 32 -85 50 -153 81 -196 106 -217 126 -13 11 -41 31 -63 43 -22 13 -46 32 -53 42 -7 11 -36 31 -63 44 -27 14 -49 29 -49 34 0 5 -24 24 -52 42 -62 38 -86 58 -228 180 -58 50 -127 110 -153 133 -66 56 -148 142 -170 177 -11 16 -23 29 -28 29 -4 0 -37 30 -71 67 -35 36 -76 80 -93 97 -16 17 -41 49 -56 71 -14 22 -51 66 -82 97 -31 32 -73 82 -92 112 -19 30 -39 57 -44 61 -13 8 -91 111 -121 160 -13 22 -39 60 -58 84 -18 24 -42 61 -53 82 -10 21 -40 64 -65 95 -26 32 -55 82 -66 115 -11 32 -31 76 -46 96 -34 51 -127 233 -142 280 -7 21 -27 65 -45 98 -18 33 -43 91 -56 129 -12 39 -30 84 -40 100 -10 17 -27 66 -39 110 -11 43 -29 94 -39 115 -10 20 -27 70 -36 111 -10 41 -29 116 -42 165 -24 88 -33 128 -72 325 -11 52 -26 119 -35 147 -24 86 -59 732 -46 861 5 48 14 170 20 272 7 138 16 211 35 285 14 55 32 152 40 217 8 64 26 149 40 190 14 40 36 127 51 193 14 66 38 145 53 175 16 30 34 78 40 105 7 28 25 73 41 100 15 28 36 75 45 105 10 30 26 66 35 80 9 14 27 56 40 93 12 37 32 80 45 95 12 15 37 56 54 92 54 111 107 209 123 227 9 10 25 36 36 58 21 42 130 207 142 215 4 3 19 28 33 55 13 28 34 59 46 69 11 10 35 41 52 67 17 27 35 49 39 49 9 0 73 82 106 137 12 19 41 54 65 77 24 23 73 76 109 119 36 43 83 90 104 105 22 15 57 49 79 77 21 27 76 82 121 122 44 39 106 94 136 121 66 60 198 163 402 316 26 19 64 44 85 55 21 10 68 39 105 63 37 23 90 57 119 73 28 17 79 48 113 71 33 22 81 48 106 58 25 10 59 26 76 37 17 10 51 26 75 34 24 9 64 29 89 44 25 16 80 41 124 56 43 15 99 37 125 50 25 12 73 30 106 40 32 9 84 30 115 45 30 16 81 33 112 39 32 6 79 19 105 30 50 21 120 39 283 71 52 10 115 26 140 35 54 19 137 30 405 50 110 9 207 18 215 22 35 15 1409 18 7770 18 6209 0 6743 -2 6840 -17z"
       id="path10" />
    <path
       d="M14285 16708 c-294 -10 -401 -20 -520 -52 -55 -14 -154 -33 -219 -42 -66 -9 -145 -25 -175 -36 -31 -11 -85 -26 -121 -33 -74 -15 -354 -111 -415 -142 -22 -12 -72 -30 -110 -42 -39 -11 -86 -32 -104 -45 -19 -14 -62 -35 -97 -46 -35 -12 -80 -33 -101 -47 -21 -14 -55 -31 -75 -39 -21 -7 -55 -26 -76 -43 -20 -16 -57 -40 -82 -52 -25 -12 -53 -29 -63 -38 -11 -9 -38 -27 -62 -41 -24 -14 -84 -53 -134 -87 -51 -35 -96 -63 -101 -63 -5 0 -34 -22 -65 -50 -30 -27 -72 -58 -93 -69 -21 -10 -43 -30 -51 -43 -7 -14 -26 -32 -42 -42 -15 -9 -55 -42 -86 -72 -32 -31 -75 -67 -96 -81 -21 -13 -47 -40 -59 -59 -11 -18 -23 -34 -27 -34 -12 0 -141 -125 -141 -137 0 -6 -18 -25 -39 -43 -22 -17 -43 -39 -46 -50 -3 -10 -21 -28 -40 -40 -21 -13 -38 -34 -45 -55 -6 -19 -24 -45 -40 -57 -15 -13 -43 -48 -60 -78 -33 -56 -54 -86 -105 -147 -16 -20 -46 -64 -65 -98 -48 -86 -109 -175 -119 -175 -5 0 -23 -33 -39 -72 -17 -40 -58 -125 -92 -188 -33 -63 -72 -146 -85 -185 -14 -38 -41 -101 -60 -140 -49 -99 -83 -187 -109 -285 -13 -47 -35 -112 -48 -145 -14 -33 -34 -109 -43 -170 -10 -60 -31 -148 -47 -195 -21 -61 -33 -127 -44 -230 -8 -80 -25 -185 -37 -235 -21 -86 -22 -110 -22 -510 1 -371 3 -425 18 -465 9 -25 26 -124 38 -220 14 -122 29 -201 49 -260 16 -47 34 -121 40 -165 7 -44 27 -119 45 -166 19 -47 39 -108 46 -135 6 -27 22 -67 34 -89 13 -22 28 -60 35 -85 6 -25 16 -62 21 -82 5 -20 20 -50 33 -66 14 -15 34 -57 46 -92 12 -35 30 -76 39 -90 10 -14 27 -45 39 -70 11 -25 34 -60 51 -78 17 -18 38 -57 46 -87 9 -29 22 -59 30 -65 8 -6 29 -35 47 -63 18 -29 47 -71 65 -95 18 -24 33 -48 33 -54 0 -13 90 -142 148 -212 153 -185 283 -330 317 -353 19 -13 36 -32 40 -43 4 -11 22 -31 42 -44 19 -14 43 -36 52 -50 16 -25 186 -176 282 -251 28 -22 83 -67 123 -101 39 -33 88 -71 110 -84 21 -12 58 -40 83 -62 24 -21 48 -38 54 -38 5 0 26 -15 46 -33 21 -18 60 -42 87 -52 27 -10 65 -32 85 -50 20 -17 62 -42 93 -54 32 -13 62 -29 68 -35 12 -15 207 -114 305 -155 39 -16 124 -52 190 -80 66 -28 149 -61 185 -72 36 -11 80 -29 99 -40 18 -11 83 -28 145 -39 61 -10 144 -31 185 -45 84 -28 224 -55 291 -55 27 0 62 -9 85 -21 34 -17 76 -23 270 -36 204 -14 1049 -15 7360 -16 6458 0 7150 1 7340 16 116 8 222 20 237 26 15 6 74 15 130 21 98 10 209 33 378 78 41 11 107 26 147 32 40 6 89 20 110 31 21 11 81 31 133 45 52 14 113 36 135 48 22 13 69 33 103 45 35 12 85 32 110 45 26 13 65 29 87 36 22 7 54 25 70 40 18 17 54 35 88 43 32 9 74 28 94 43 19 15 57 35 83 45 26 10 83 44 126 77 44 32 102 72 129 87 28 16 61 39 75 51 14 13 54 36 90 52 43 19 70 38 79 56 18 32 85 89 133 112 19 9 43 29 52 45 10 16 29 36 44 44 35 18 291 273 421 419 13 15 37 47 52 72 16 24 33 44 39 44 5 0 18 17 29 38 10 20 33 51 51 67 17 17 38 42 46 57 8 15 35 50 59 78 25 28 45 56 45 63 0 13 66 122 117 192 16 22 38 60 48 85 10 25 30 60 43 78 13 18 34 60 47 93 13 32 33 70 44 85 11 14 27 49 37 77 9 29 36 92 60 141 24 49 44 98 44 110 0 12 15 45 34 74 24 38 37 72 44 122 6 38 21 93 35 122 13 29 34 96 47 148 12 52 33 131 46 175 13 44 31 129 39 189 8 59 27 145 41 190 24 75 27 105 40 411 8 182 12 398 9 480 -11 268 -36 535 -55 582 -5 13 -16 64 -24 115 -9 51 -26 127 -39 168 -14 41 -28 91 -31 110 -24 125 -73 299 -93 328 -12 19 -23 42 -23 52 0 9 -13 36 -29 61 -16 24 -39 79 -50 122 -12 45 -36 99 -55 127 -18 26 -38 69 -45 94 -6 25 -24 61 -41 79 -16 19 -34 55 -40 82 -13 57 -27 86 -51 103 -10 7 -31 34 -46 60 -15 26 -37 61 -48 77 -12 17 -28 45 -35 63 -7 18 -20 38 -30 45 -9 7 -28 30 -42 53 -15 22 -45 62 -67 88 -23 26 -41 52 -41 57 0 5 -17 28 -37 50 -21 23 -51 56 -66 73 -16 17 -36 43 -44 57 -9 14 -29 34 -44 43 -16 10 -36 30 -44 47 -9 16 -76 89 -150 162 -131 128 -180 174 -295 271 -30 26 -71 62 -90 81 -19 18 -57 44 -85 58 -27 14 -55 34 -61 44 -13 21 -144 113 -161 113 -6 0 -25 13 -42 29 -18 16 -60 46 -95 65 -35 19 -69 42 -75 50 -7 8 -37 22 -66 31 -32 9 -68 29 -90 49 -23 22 -54 39 -86 46 -28 7 -67 26 -89 45 -21 18 -58 37 -82 43 -24 6 -59 23 -78 37 -19 14 -60 33 -90 41 -30 9 -74 27 -96 40 -23 13 -79 34 -125 48 -46 14 -120 38 -165 55 -44 16 -109 35 -145 41 -35 7 -86 22 -114 35 -30 15 -95 30 -165 40 -63 9 -153 28 -199 41 -46 13 -104 24 -130 24 -25 0 -100 8 -166 17 -109 14 -746 16 -7265 17 -3930 1 -7244 -2 -7365 -6z m14525 -551 c58 -9 130 -17 160 -17 30 0 70 -4 88 -10 19 -5 79 -14 135 -20 56 -7 134 -23 172 -36 60 -20 241 -63 325 -78 14 -2 45 -15 70 -29 25 -14 69 -30 98 -36 30 -6 72 -22 95 -35 23 -13 72 -33 109 -45 36 -12 72 -28 78 -36 6 -7 46 -26 88 -41 42 -15 95 -40 117 -54 22 -15 57 -33 77 -39 20 -7 54 -26 75 -43 21 -16 56 -39 78 -50 22 -11 49 -28 60 -38 11 -10 39 -29 61 -42 49 -27 148 -98 210 -150 25 -21 49 -38 53 -38 5 0 25 -15 44 -32 20 -18 60 -52 89 -75 29 -24 78 -70 108 -104 30 -34 93 -101 140 -149 146 -151 200 -213 238 -271 20 -31 61 -83 90 -117 50 -58 85 -114 185 -302 22 -41 52 -91 67 -110 37 -47 185 -355 206 -428 9 -31 29 -82 44 -112 15 -30 33 -84 40 -120 6 -36 25 -94 40 -130 16 -36 38 -112 50 -169 12 -57 25 -112 31 -122 13 -24 35 -143 49 -264 6 -55 21 -145 33 -200 21 -94 22 -125 21 -490 0 -296 -3 -396 -13 -413 -7 -13 -24 -103 -37 -199 -15 -106 -36 -210 -54 -262 -15 -47 -33 -120 -39 -161 -7 -42 -22 -93 -35 -115 -13 -22 -33 -73 -44 -114 -12 -41 -33 -91 -47 -111 -14 -20 -35 -70 -46 -111 -12 -41 -38 -103 -59 -139 -21 -36 -43 -83 -50 -105 -7 -22 -23 -51 -36 -65 -21 -23 -39 -52 -95 -155 -58 -105 -235 -349 -309 -425 -19 -19 -51 -56 -71 -81 -21 -25 -81 -90 -135 -146 -55 -55 -113 -116 -130 -134 -32 -36 -73 -72 -194 -170 -41 -34 -90 -77 -109 -96 -19 -19 -51 -43 -70 -54 -47 -26 -108 -66 -162 -107 -24 -19 -64 -45 -89 -59 -98 -53 -140 -80 -163 -101 -12 -12 -48 -30 -79 -41 -31 -11 -79 -35 -108 -55 -28 -20 -71 -41 -93 -47 -23 -6 -64 -23 -92 -38 -27 -16 -81 -38 -120 -51 -38 -12 -80 -29 -93 -37 -37 -23 -308 -108 -422 -133 -58 -12 -131 -30 -163 -41 -64 -20 -206 -42 -387 -59 -72 -6 -761 -14 -1835 -21 -2079 -13 -12297 -5 -12700 10 -418 15 -601 33 -689 67 -21 8 -102 30 -180 49 -236 56 -420 120 -656 226 -47 21 -96 41 -110 44 -14 3 -45 21 -69 40 -23 19 -66 41 -95 49 -29 9 -63 27 -76 42 -29 31 -86 68 -153 101 -26 13 -73 44 -103 68 -30 25 -59 45 -63 45 -5 0 -27 15 -49 33 -22 17 -66 52 -97 77 -111 87 -252 217 -389 359 -39 41 -94 97 -122 125 -28 28 -67 76 -87 107 -19 31 -40 60 -46 63 -13 8 -201 291 -201 302 0 5 -16 28 -35 52 -18 24 -42 64 -51 90 -9 26 -30 63 -45 84 -16 20 -40 61 -53 93 -14 31 -35 68 -46 82 -11 14 -29 54 -40 89 -10 34 -29 82 -41 105 -12 24 -30 70 -41 103 -11 34 -30 82 -43 108 -13 26 -34 94 -45 150 -12 57 -32 128 -45 158 -13 30 -36 123 -50 205 -39 221 -42 236 -59 282 -10 29 -18 118 -26 280 -19 412 13 994 61 1098 10 22 22 67 28 100 5 33 21 92 36 130 14 39 33 104 41 145 8 41 30 107 48 145 19 39 37 90 41 114 5 29 18 56 41 81 19 21 34 45 34 53 0 26 39 124 55 137 8 6 24 41 35 76 12 36 33 78 46 93 13 16 38 57 55 92 18 35 45 79 60 97 16 18 36 49 44 69 8 20 32 55 53 78 20 23 48 57 62 76 14 19 43 54 65 79 23 25 49 59 60 75 10 17 53 68 95 115 42 47 88 101 102 121 15 20 49 50 76 68 27 17 62 50 78 72 15 22 48 55 73 72 26 16 65 46 88 66 23 20 70 59 104 86 34 28 69 57 78 65 9 9 39 28 66 44 28 16 68 44 89 63 22 18 45 33 52 33 7 0 33 16 58 35 26 19 49 35 53 35 3 0 20 11 37 23 49 38 180 107 376 200 164 78 207 95 365 144 28 8 79 26 115 39 36 14 106 33 155 43 50 11 114 29 142 40 29 11 83 25 120 31 38 5 93 14 123 20 142 25 273 44 355 50 50 4 3330 6 7290 6 6691 -2 7207 -3 7305 -19z"
       id="path11" />
    <path
       d="M28880 15154 c-14 -2 -59 -9 -100 -15 -48 -7 -106 -25 -161 -50 -47 -21 -108 -43 -136 -48 -44 -9 -59 -19 -109 -71 -32 -33 -73 -70 -92 -82 -33 -20 -110 -96 -181 -177 -19 -21 -42 -58 -51 -82 -9 -24 -30 -58 -48 -75 -17 -17 -34 -44 -38 -60 -4 -16 -16 -49 -27 -74 -39 -87 -56 -178 -62 -344 -9 -222 4 -347 44 -417 16 -30 33 -73 37 -96 14 -88 8 -97 -201 -307 -182 -182 -197 -195 -239 -201 -57 -9 -104 8 -166 61 -28 24 -64 44 -85 48 -20 4 -71 24 -113 46 -83 41 -134 53 -312 71 -86 8 -139 9 -210 0 -171 -19 -273 -42 -325 -70 -27 -16 -66 -34 -85 -41 -19 -8 -51 -26 -70 -41 -19 -15 -60 -39 -91 -54 -36 -18 -62 -39 -73 -59 -10 -17 -45 -56 -80 -86 -114 -101 -214 -264 -229 -373 l-6 -45 50 -11 c27 -6 85 -11 128 -11 100 0 143 -19 210 -90 84 -90 126 -195 111 -283 -26 -153 -43 -208 -74 -233 -17 -14 -42 -35 -56 -48 -14 -13 -44 -36 -67 -51 -40 -26 -49 -27 -172 -29 -77 0 -134 -5 -141 -12 -23 -23 49 -173 141 -292 35 -46 76 -100 92 -119 24 -32 57 -58 187 -148 19 -13 46 -32 60 -42 14 -11 66 -42 115 -70 83 -47 99 -52 215 -69 242 -36 579 -16 690 42 25 13 74 35 110 49 35 14 78 39 95 55 67 64 188 53 226 -21 10 -20 85 -103 167 -185 89 -89 159 -167 172 -194 l23 -44 -31 -96 c-40 -124 -52 -213 -52 -368 0 -145 13 -239 39 -291 11 -20 38 -94 61 -165 38 -117 47 -134 94 -183 28 -30 85 -91 126 -137 41 -45 91 -93 110 -107 19 -13 58 -45 86 -71 39 -37 69 -54 130 -74 43 -15 104 -38 134 -51 106 -48 146 -55 350 -60 208 -6 277 2 346 38 22 11 79 31 128 45 59 17 101 35 123 54 18 16 54 41 80 56 57 32 187 156 251 239 25 33 54 66 63 73 33 24 110 194 131 287 10 49 29 110 40 135 39 84 34 450 -7 514 -8 11 -23 54 -34 94 -11 41 -29 88 -40 105 -11 18 -41 73 -66 122 -40 80 -60 105 -169 212 -115 113 -131 125 -251 187 -70 36 -155 75 -189 85 -33 11 -86 29 -117 40 -81 29 -370 40 -449 16 -30 -8 -97 -27 -148 -40 -94 -25 -144 -46 -172 -71 -9 -7 -35 -20 -58 -28 -52 -19 -107 -61 -255 -197 l-116 -107 -48 5 c-26 3 -61 14 -78 24 -16 10 -96 85 -177 166 -125 126 -148 154 -156 190 -9 39 -8 43 24 74 18 18 41 54 49 80 9 25 25 55 37 65 11 11 32 44 45 74 14 30 31 62 39 71 17 19 52 204 60 319 4 47 1 157 -5 245 -11 155 -13 162 -50 240 -22 44 -45 99 -52 123 -7 23 -28 60 -47 82 -20 24 -40 62 -48 94 -21 80 -2 131 75 207 34 32 65 59 70 59 4 0 43 40 86 89 64 75 85 93 125 106 l48 16 59 -45 c37 -28 69 -63 85 -93 24 -44 32 -50 78 -62 37 -10 58 -22 78 -47 17 -22 47 -42 81 -55 29 -11 72 -31 95 -44 22 -13 86 -34 141 -46 55 -11 113 -28 129 -36 48 -25 264 -30 362 -8 174 38 325 98 443 174 35 22 70 41 78 41 23 0 71 41 84 71 6 16 34 45 61 65 53 39 107 114 173 239 23 44 47 89 53 100 6 11 29 79 51 150 69 222 74 398 18 547 -14 37 -30 100 -36 139 -8 56 -18 83 -45 123 -19 28 -40 64 -46 81 -13 34 -108 161 -148 197 -15 13 -56 57 -92 96 -36 40 -71 72 -78 72 -22 0 -75 31 -114 66 -22 19 -61 40 -94 50 -31 9 -85 29 -120 46 -47 22 -87 32 -156 38 -90 9 -297 11 -348 4z"
       id="path12" />
    <path
       d="M12995 14266 c-33 -7 -71 -18 -85 -26 -14 -7 -71 -28 -127 -45 -61 -20 -117 -44 -140 -62 -21 -17 -63 -43 -94 -59 -41 -21 -80 -56 -145 -129 -49 -55 -112 -122 -141 -150 -31 -30 -58 -67 -67 -92 -8 -22 -26 -58 -40 -80 -14 -21 -38 -87 -55 -148 -16 -60 -35 -123 -41 -139 -16 -44 -27 -219 -19 -326 5 -71 14 -114 37 -170 16 -41 36 -102 42 -135 14 -67 28 -98 60 -135 13 -14 33 -47 45 -73 26 -54 83 -125 171 -212 33 -33 70 -74 82 -91 17 -24 34 -35 73 -44 33 -8 66 -25 89 -47 22 -19 68 -44 106 -58 38 -13 98 -36 134 -52 l65 -28 260 0 260 0 76 38 c41 20 79 37 84 37 17 0 212 93 242 116 18 14 51 31 74 39 l41 15 151 -155 c139 -141 324 -328 378 -381 12 -12 35 -35 51 -52 17 -16 37 -36 45 -43 7 -8 37 -42 65 -76 28 -35 66 -72 84 -82 37 -22 84 -112 84 -160 0 -16 -9 -49 -20 -74 -11 -25 -23 -67 -26 -94 -4 -26 -15 -66 -26 -88 -46 -96 -48 -353 -3 -464 15 -35 30 -97 35 -138 8 -71 16 -92 51 -123 9 -8 24 -38 33 -67 10 -28 24 -57 32 -64 8 -7 33 -38 55 -69 49 -70 262 -268 309 -288 19 -8 60 -29 90 -48 31 -19 85 -43 120 -53 36 -11 97 -31 135 -45 44 -15 104 -27 160 -31 115 -9 349 9 406 31 24 9 85 31 135 49 99 35 109 40 139 65 11 10 43 26 70 36 39 14 70 39 136 109 136 142 191 214 254 330 21 39 46 82 56 96 51 73 86 352 71 556 -11 139 -22 186 -67 278 -22 44 -24 57 -16 99 7 40 17 55 66 99 91 83 295 289 295 298 0 5 16 17 35 27 19 9 98 78 174 152 76 74 197 192 270 263 77 75 139 127 150 127 11 0 35 -15 53 -33 20 -20 52 -39 80 -47 26 -7 65 -28 87 -47 24 -20 74 -46 123 -63 46 -16 107 -38 135 -49 30 -12 91 -24 138 -27 79 -7 87 -5 109 15 13 13 29 43 35 67 15 60 14 2087 -1 2157 -15 70 -40 84 -132 70 -39 -5 -93 -20 -119 -32 -26 -12 -85 -31 -130 -42 -94 -24 -111 -32 -152 -69 -16 -16 -57 -42 -91 -60 -44 -23 -85 -57 -145 -123 -46 -50 -108 -116 -136 -147 -29 -31 -60 -76 -68 -101 -9 -24 -26 -60 -38 -79 -30 -46 -42 -78 -67 -180 -11 -47 -27 -110 -36 -140 -12 -39 -16 -97 -16 -203 0 -139 2 -155 32 -250 17 -56 40 -130 51 -164 10 -34 34 -83 53 -107 37 -49 62 -116 71 -188 5 -46 4 -48 -41 -85 -25 -21 -83 -75 -129 -120 -46 -46 -89 -83 -94 -83 -5 0 -19 -15 -30 -33 -11 -18 -31 -39 -45 -46 -13 -7 -30 -25 -37 -38 -8 -14 -28 -35 -45 -47 -17 -12 -47 -41 -66 -66 -46 -61 -152 -161 -192 -182 -17 -9 -54 -44 -81 -78 -95 -118 -98 -120 -155 -120 -60 0 -118 34 -172 101 -115 144 -248 221 -503 295 -170 49 -170 49 -308 47 -128 -2 -149 -5 -285 -43 -87 -24 -165 -53 -192 -70 -25 -15 -69 -35 -97 -44 -36 -10 -62 -26 -84 -50 -17 -20 -37 -36 -45 -36 -7 0 -49 -35 -93 -78 -62 -61 -90 -80 -126 -90 -26 -7 -52 -9 -58 -5 -37 22 -108 92 -118 116 -7 16 -35 43 -65 63 -30 18 -54 38 -54 43 0 5 -50 60 -110 123 -61 62 -172 176 -247 253 -245 251 -231 232 -190 282 13 15 29 49 37 76 7 28 28 64 50 89 21 22 40 51 43 62 2 12 12 57 22 101 9 44 29 107 43 140 26 58 27 66 27 255 -1 188 -2 198 -28 270 -16 41 -37 104 -48 140 -12 36 -29 79 -40 96 -10 17 -26 50 -34 73 -34 97 -332 392 -425 422 -19 6 -56 24 -81 39 -25 15 -72 35 -105 45 -32 9 -69 23 -82 31 -44 29 -152 44 -307 43 -82 -1 -177 -6 -210 -13z"
       id="path13" />
    <path
       d="M22510 14269 c-30 -5 -86 -20 -125 -33 -38 -13 -99 -27 -133 -31 -52 -6 -71 -13 -99 -39 -20 -17 -60 -44 -89 -61 -75 -43 -147 -100 -244 -197 -126 -124 -158 -166 -176 -228 -9 -30 -25 -67 -35 -82 -30 -42 -47 -89 -59 -163 -12 -76 -57 -174 -94 -202 -24 -19 -46 -20 -721 -19 l-697 1 -23 27 c-14 17 -26 47 -30 75 -10 80 -94 315 -124 347 -10 12 -29 42 -41 68 -30 66 -297 337 -365 371 -27 14 -63 36 -78 49 -17 15 -58 31 -105 42 -42 10 -99 29 -127 43 -40 20 -70 26 -150 30 -89 5 -103 3 -124 -14 -24 -20 -25 -22 -21 -154 2 -74 3 -557 2 -1074 -1 -658 1 -954 9 -988 16 -68 40 -82 130 -73 39 3 96 15 127 26 31 12 93 31 137 44 89 25 115 37 135 61 7 8 40 30 74 48 40 21 97 69 168 139 59 59 116 113 126 120 11 7 29 33 42 58 12 25 35 60 51 78 16 17 36 58 45 90 9 31 29 82 45 112 17 35 30 79 34 120 8 71 36 144 63 157 9 4 324 9 699 11 633 2 685 1 709 -15 37 -24 79 -120 109 -251 23 -96 33 -120 75 -180 27 -39 63 -100 80 -136 17 -36 41 -73 53 -81 12 -8 49 -42 82 -74 33 -32 78 -70 100 -85 22 -15 67 -47 100 -71 99 -73 144 -98 199 -107 28 -5 85 -21 126 -35 143 -50 516 -43 635 12 28 13 76 31 108 40 32 9 73 29 90 45 18 15 50 35 72 44 22 9 69 45 105 80 36 35 79 71 97 80 17 9 42 34 54 56 13 22 33 47 46 55 12 9 32 34 44 57 12 24 34 58 49 78 15 19 38 66 50 104 13 39 31 84 40 100 33 58 42 132 44 359 1 269 -4 297 -90 473 -35 71 -64 136 -64 142 0 7 -20 31 -44 55 -27 26 -52 62 -63 92 -13 36 -27 54 -50 66 -17 8 -68 47 -114 85 -46 38 -109 82 -139 97 -30 16 -62 34 -70 41 -8 7 -40 21 -70 30 -30 10 -74 28 -97 42 -23 13 -54 24 -70 24 -15 0 -50 7 -77 15 -55 17 -254 19 -346 4z"
       id="path14" />
    <path
       d="M25770 12383 c-109 -5 -114 -8 -173 -86 -30 -40 -59 -87 -66 -106 -24 -73 -7 -143 52 -212 17 -21 42 -51 54 -67 41 -54 172 -67 268 -27 40 16 107 89 132 144 14 30 16 117 4 179 -6 28 -21 56 -44 80 -20 20 -46 49 -59 64 -25 28 -63 35 -168 31z"
       id="path15" />
    <path
       d="M1406 7341 c-15 -17 -16 -19 -1 -25 26 -9 133 -7 140 3 3 5 -21 15 -52 21 -32 7 -61 14 -64 16 -4 2 -14 -5 -23 -15z"
       id="path16" />
    <path
       d="M1120 7314 c-69 -52 -78 -63 -96 -117 -24 -73 -14 -183 23 -256 25 -48 39 -62 113 -108 47 -29 114 -61 149 -72 35 -11 74 -29 86 -41 12 -12 46 -27 75 -35 29 -8 69 -25 89 -38 20 -14 67 -35 106 -47 38 -12 82 -30 97 -41 15 -11 53 -29 83 -39 31 -11 81 -34 112 -51 30 -17 86 -40 125 -49 38 -10 77 -25 86 -34 22 -19 122 -66 143 -66 9 0 28 -9 43 -21 14 -11 52 -29 84 -40 31 -11 89 -33 129 -50 46 -19 89 -29 121 -29 49 0 50 1 66 40 9 22 21 62 27 88 5 26 26 70 45 98 31 45 34 53 24 80 -19 49 -70 93 -127 110 -28 8 -63 24 -78 36 -14 11 -54 29 -88 40 -34 10 -79 30 -99 43 -20 14 -66 32 -103 41 -37 9 -81 29 -101 45 -22 18 -58 33 -95 40 -38 7 -69 21 -89 39 -18 16 -55 34 -83 41 -29 6 -86 29 -127 49 -41 20 -93 43 -115 50 -22 7 -67 27 -100 45 -33 18 -83 40 -111 48 -28 8 -73 25 -100 37 -27 13 -78 35 -113 49 -57 23 -67 32 -91 75 -40 75 -56 81 -110 40z"
       id="path17" />
    <path
       d="M3460 7282 c-20 -9 -49 -38 -66 -65 -18 -27 -41 -58 -53 -71 -11 -12 -32 -56 -46 -97 -14 -41 -33 -85 -43 -99 -10 -14 -31 -65 -46 -115 -15 -49 -42 -115 -60 -146 -18 -31 -36 -73 -40 -95 -5 -21 -24 -73 -43 -114 -92 -195 -111 -238 -123 -273 -6 -21 -23 -50 -36 -64 -14 -15 -28 -48 -35 -85 -7 -35 -24 -75 -41 -100 -17 -22 -43 -75 -58 -117 -44 -118 -78 -199 -120 -286 -21 -44 -44 -100 -50 -125 -6 -25 -23 -61 -36 -82 -14 -20 -32 -58 -40 -84 -8 -26 -31 -79 -53 -118 -21 -39 -41 -88 -44 -109 -3 -21 -20 -59 -36 -84 -17 -26 -31 -52 -31 -59 0 -28 -35 -115 -97 -244 -36 -74 -76 -161 -89 -192 -12 -32 -31 -70 -42 -85 -10 -16 -32 -66 -47 -113 -15 -47 -43 -113 -62 -148 -41 -78 -44 -139 -11 -199 24 -43 109 -119 169 -152 43 -24 139 -41 228 -41 l65 0 50 53 c36 37 58 72 75 117 13 36 30 73 39 82 8 10 23 48 33 85 11 37 32 86 48 108 16 23 37 70 46 106 9 35 24 75 34 89 29 41 58 102 66 140 4 19 20 58 35 85 15 28 35 73 44 102 10 28 26 63 37 77 10 13 29 55 40 93 12 37 32 86 44 108 13 22 29 60 35 85 6 25 25 70 41 100 17 30 53 111 80 180 27 69 63 145 79 169 17 25 42 83 56 130 14 47 39 106 54 131 15 25 36 70 45 100 10 30 32 82 50 115 18 33 38 82 44 109 7 27 23 62 36 78 14 16 29 48 35 71 6 23 28 78 49 122 22 44 42 91 46 105 4 14 20 48 35 75 15 28 38 82 50 120 12 39 41 108 65 155 70 140 82 239 39 326 -16 33 -34 47 -117 90 -144 74 -253 93 -327 56z"
       id="path18" />
    <path
       d="M1590 7252 c0 -21 33 -32 99 -32 90 1 60 32 -42 45 -53 7 -57 6 -57 -13z"
       id="path19" />
    <path
       d="M1792 7167 c-11 -12 -8 -17 19 -26 40 -14 146 -14 154 -1 17 27 -151 53 -173 27z"
       id="path20" />
    <path
       d="M2005 7093 c-22 -22 -18 -30 18 -41 64 -20 102 -23 122 -8 26 19 18 25 -60 46 -58 15 -68 16 -80 3z"
       id="path21" />
    <path
       d="M2240 6990 l-25 -7 28 -12 c34 -13 123 -15 131 -2 4 5 -17 14 -44 20 -56 12 -55 12 -90 1z"
       id="path22" />
    <path
       d="M2420 6911 c-24 -17 0 -31 74 -43 58 -10 69 -9 83 4 14 15 14 17 -4 26 -29 16 -136 24 -153 13z"
       id="path23" />
    <path
       d="M4095 6836 c-20 -15 -80 -134 -116 -230 -16 -44 -36 -87 -44 -96 -8 -9 -26 -48 -39 -86 -29 -85 -112 -262 -132 -281 -8 -8 -16 -26 -20 -41 -19 -93 -28 -122 -53 -162 -27 -46 -35 -62 -123 -275 -27 -66 -62 -147 -79 -180 -16 -33 -45 -103 -65 -155 -20 -52 -51 -124 -70 -160 -18 -36 -43 -91 -54 -124 -11 -32 -33 -79 -50 -104 -16 -25 -30 -50 -30 -56 0 -30 -24 -89 -46 -116 -14 -16 -32 -56 -39 -89 -8 -32 -32 -93 -55 -135 -22 -42 -40 -84 -40 -92 0 -8 -17 -51 -38 -97 -22 -45 -47 -102 -56 -127 -10 -25 -31 -72 -46 -105 -16 -33 -31 -74 -35 -90 -4 -17 -25 -60 -46 -96 -64 -107 -62 -204 3 -225 11 -3 84 -36 161 -74 78 -37 187 -89 242 -115 55 -26 118 -54 140 -62 22 -7 55 -23 75 -35 19 -11 78 -28 130 -38 52 -10 127 -29 166 -43 40 -15 114 -32 165 -38 116 -14 382 -5 459 15 274 74 324 90 350 112 8 7 51 31 95 54 76 39 116 65 252 170 58 44 213 198 213 212 0 4 18 28 40 53 22 25 40 50 40 55 0 5 12 22 26 39 36 43 140 251 159 319 9 31 29 80 45 107 35 63 137 363 145 430 4 28 14 76 22 108 34 124 -15 564 -75 684 -11 21 -25 56 -32 78 -14 47 -141 285 -151 285 -4 0 -37 39 -73 88 -36 48 -96 113 -133 144 -155 131 -179 150 -208 165 -16 8 -39 24 -50 34 -11 10 -37 25 -58 34 -21 8 -46 24 -57 35 -24 24 -97 54 -155 64 -22 4 -55 19 -74 33 -18 14 -61 34 -95 45 -33 10 -77 28 -96 40 -19 11 -57 29 -85 40 -27 10 -75 32 -106 48 -64 33 -181 53 -204 36z m400 -1318 c21 -9 25 -18 25 -54 0 -44 -26 -114 -42 -114 -9 0 -28 -40 -42 -86 -4 -15 2 -32 23 -58 16 -20 35 -60 42 -88 l12 -52 -37 -32 c-39 -34 -71 -111 -61 -145 3 -9 22 -29 41 -44 33 -25 34 -28 20 -48 -9 -12 -34 -58 -56 -102 -32 -66 -48 -86 -90 -114 -28 -18 -66 -56 -86 -82 -20 -27 -40 -49 -45 -49 -29 0 -39 100 -20 207 11 61 10 75 -2 95 -31 48 -30 66 7 138 49 94 48 110 -11 201 -31 47 -29 94 7 165 17 32 35 86 41 119 12 68 32 96 99 131 50 26 132 32 175 12z"
       id="path24" />
    <path
       d="M2614 6819 c-9 -16 5 -24 65 -38 47 -10 57 -9 70 4 15 15 14 18 -3 31 -23 17 -122 19 -132 3z"
       id="path25" />
    <path
       d="M2791 6736 c-9 -11 -8 -17 4 -29 12 -13 21 -14 45 -5 37 12 38 21 5 36 -33 15 -40 15 -54 -2z"
       id="path26" />
    <path
       d="M13220 6220 c-41 -4 -129 -24 -194 -44 -65 -20 -127 -36 -137 -36 -10 0 -41 -20 -69 -45 -28 -25 -56 -45 -63 -45 -19 0 -101 -80 -126 -122 -13 -21 -27 -38 -32 -38 -5 0 -22 -26 -37 -57 -16 -32 -42 -80 -58 -108 -29 -50 -29 -51 -29 -220 l0 -170 58 -117 c40 -80 70 -127 97 -150 88 -77 127 -104 178 -125 30 -12 65 -31 77 -43 12 -12 63 -34 111 -49 49 -15 103 -35 120 -44 17 -9 72 -23 122 -32 50 -8 113 -25 139 -36 27 -12 97 -30 157 -40 59 -11 125 -28 145 -39 21 -10 66 -26 102 -35 101 -26 206 -83 270 -145 47 -46 58 -64 68 -108 28 -134 24 -209 -18 -322 -20 -53 -27 -60 -128 -131 -60 -42 -113 -79 -119 -82 -38 -22 -258 -57 -357 -57 -156 0 -379 42 -428 80 -20 16 -65 41 -100 58 -110 50 -213 191 -243 334 -7 37 -21 78 -29 91 -22 34 -84 46 -192 39 l-89 -7 -23 -40 c-13 -23 -23 -57 -23 -81 0 -51 26 -141 51 -173 11 -13 27 -49 35 -80 21 -71 49 -126 72 -143 11 -7 31 -30 45 -51 31 -46 135 -140 180 -163 17 -9 46 -27 62 -39 17 -12 46 -28 65 -35 19 -7 64 -25 100 -41 117 -50 235 -64 495 -61 267 4 388 21 476 70 30 17 80 37 112 46 48 14 73 31 153 104 53 48 114 113 136 145 46 68 62 77 90 49 18 -17 21 -36 25 -139 5 -155 11 -200 29 -218 12 -12 43 -15 144 -15 l128 0 15 38 c13 32 15 162 16 948 l2 911 -22 27 -22 28 -111 -5 c-61 -2 -126 -10 -143 -17 l-33 -12 -1 -156 c-3 -722 1 -709 -166 -547 -93 90 -151 135 -192 150 -23 8 -60 25 -83 39 -24 13 -67 31 -96 40 -29 8 -66 25 -83 37 -21 14 -56 24 -112 31 -45 6 -125 21 -177 35 -187 49 -246 63 -314 73 -38 6 -84 19 -102 30 -17 11 -62 31 -99 44 -68 25 -146 81 -167 119 -6 12 -24 38 -40 57 -27 33 -28 39 -28 136 0 100 1 103 33 143 17 22 49 65 70 96 34 49 48 61 125 97 79 37 98 41 207 50 171 14 361 5 468 -21 112 -27 178 -75 233 -168 20 -35 40 -63 45 -63 12 0 49 -65 49 -86 0 -51 21 -92 64 -122 l44 -32 91 9 c66 7 100 16 121 31 45 32 51 49 35 106 -7 27 -20 80 -29 118 -22 96 -111 230 -218 330 -61 58 -180 127 -257 150 -27 8 -59 19 -70 25 -11 6 -78 20 -148 31 -132 20 -305 24 -453 10z"
       id="path27" />
    <path
       d="M28812 6201 c-23 -4 -61 -21 -85 -37 -40 -29 -42 -32 -48 -94 -11 -110 -8 -2430 2 -2487 6 -28 17 -57 26 -65 20 -16 231 -22 250 -6 7 6 20 34 28 62 9 28 23 61 33 74 l18 23 44 -39 c25 -21 60 -44 79 -52 18 -7 51 -28 73 -47 61 -50 131 -67 278 -66 75 0 154 7 198 16 77 17 220 83 262 121 14 13 41 33 60 47 61 41 151 139 171 187 11 26 29 57 40 68 32 35 89 209 104 319 24 177 28 339 11 469 -10 73 -21 125 -30 135 -9 10 -22 52 -30 94 -16 84 -17 85 -56 137 -15 19 -35 57 -45 83 -9 27 -23 51 -30 53 -7 3 -43 41 -80 84 -47 55 -79 83 -103 91 -20 6 -45 22 -57 35 -28 30 -121 51 -291 66 -112 10 -146 9 -238 -5 -92 -15 -114 -22 -164 -55 -64 -42 -105 -62 -130 -62 -9 0 -29 -6 -43 -14 -50 -26 -52 -3 -50 410 l3 370 -26 30 c-21 26 -51 41 -120 58 -6 2 -30 0 -54 -3z m888 -1023 c30 -14 72 -39 92 -54 32 -25 55 -51 140 -157 10 -12 24 -55 33 -96 8 -40 24 -85 35 -100 16 -23 20 -55 28 -207 10 -196 3 -290 -28 -368 -11 -28 -29 -84 -41 -124 -16 -55 -28 -77 -50 -93 -16 -11 -29 -27 -29 -35 0 -8 -21 -37 -47 -65 -69 -71 -214 -142 -304 -147 -143 -9 -249 34 -355 144 -54 56 -78 89 -94 132 -12 31 -28 68 -37 81 -32 50 -45 125 -50 303 -3 97 -2 215 2 262 6 73 11 91 35 121 20 26 31 53 36 93 9 77 21 97 111 189 136 139 173 155 348 150 104 -3 127 -6 175 -29z"
       id="path28" />
    <path
       d="M14533 6179 c-24 -11 -47 -28 -53 -38 -5 -11 -10 -78 -11 -151 -2 -178 -5 -176 167 -174 170 2 164 -3 164 173 0 168 -3 173 -99 195 -88 20 -115 19 -168 -5z"
       id="path29" />
    <path
       d="M15391 6180 c-25 -9 -53 -27 -63 -40 -17 -21 -18 -75 -17 -1274 0 -1085 2 -1257 15 -1298 9 -26 21 -51 27 -55 6 -3 48 -6 93 -5 85 1 140 17 172 48 16 16 17 103 20 1278 1 694 0 1271 -3 1284 -3 13 -26 36 -52 52 -55 35 -121 39 -192 10z"
       id="path30" />
    <path
       d="M16250 6190 c-19 -4 -47 -22 -61 -38 l-26 -29 1 -1269 c1 -1494 -14 -1334 132 -1346 126 -11 128 -10 159 72 15 38 30 70 33 70 30 0 92 -27 117 -50 17 -15 50 -37 75 -49 25 -12 64 -33 87 -47 35 -21 63 -27 169 -36 143 -12 238 -2 304 32 22 11 45 20 53 20 19 0 144 67 185 99 77 59 154 148 182 209 16 34 36 65 45 68 21 9 34 34 45 94 5 28 21 65 34 83 28 36 31 55 47 302 14 225 -10 515 -47 556 -8 9 -43 73 -78 142 -98 196 -156 252 -376 363 -97 50 -464 52 -560 5 -126 -63 -155 -80 -176 -106 l-22 -28 -34 19 c-48 28 -72 82 -59 131 7 23 11 163 11 354 0 315 0 316 -22 336 -13 11 -33 26 -45 32 -30 15 -130 22 -173 11z m903 -993 c18 -8 39 -22 47 -32 8 -10 34 -26 57 -36 56 -24 105 -91 208 -289 21 -39 44 -291 39 -420 -7 -182 -27 -278 -80 -373 -25 -45 -66 -111 -92 -146 -41 -56 -55 -67 -113 -90 -36 -14 -77 -33 -90 -43 -81 -53 -261 -49 -345 9 -16 11 -55 36 -86 56 -42 27 -70 56 -108 113 -29 43 -58 95 -66 117 -32 91 -64 264 -64 347 0 97 25 322 38 348 5 9 15 40 22 69 6 29 27 78 46 109 19 31 34 60 34 64 0 5 22 33 49 62 53 58 154 126 205 139 56 13 264 10 299 -4z"
       id="path31" />
    <path
       d="M24984 6183 c-12 -2 -26 -15 -32 -29 -9 -17 -12 -381 -12 -1298 -1 -1107 1 -1279 14 -1310 8 -20 16 -36 18 -37 2 0 334 -3 740 -6 803 -5 832 -3 882 46 31 32 32 37 20 162 -6 70 -9 78 -33 90 -21 11 -151 15 -642 19 -589 5 -618 6 -638 24 l-21 19 0 1131 c0 1068 -1 1132 -18 1154 -10 13 -36 27 -57 32 -40 9 -180 11 -221 3z"
       id="path32" />
    <path
       d="M786 5867 c-19 -14 -18 -15 15 -25 78 -25 163 -12 131 20 -18 18 -123 22 -146 5z"
       id="path33" />
    <path
       d="M512 5851 c-48 -8 -115 -65 -136 -116 -21 -49 -26 -128 -12 -189 11 -46 22 -64 68 -109 33 -33 82 -67 124 -87 38 -18 105 -50 149 -71 128 -62 537 -241 575 -251 19 -6 58 -23 87 -39 28 -16 71 -36 96 -43 25 -7 58 -23 74 -34 16 -11 65 -32 110 -47 45 -14 92 -34 105 -44 28 -21 65 -36 141 -55 32 -8 72 -25 90 -38 54 -41 55 -41 83 4 15 23 37 50 48 59 13 10 31 48 45 93 13 41 29 81 37 87 18 14 19 103 2 117 -7 5 -38 17 -68 25 -30 9 -70 28 -89 42 -19 14 -41 25 -49 25 -7 0 -48 16 -90 36 -42 19 -106 47 -142 60 -36 14 -81 36 -100 49 -19 13 -69 34 -110 46 -41 12 -108 40 -148 61 -40 21 -80 38 -89 38 -9 0 -39 13 -67 28 -28 16 -83 38 -122 50 -39 12 -79 31 -89 42 -10 11 -50 30 -87 41 -38 12 -82 32 -98 45 -16 14 -62 33 -111 45 -97 24 -139 44 -139 65 0 20 -28 74 -38 73 -4 -1 -26 -5 -50 -8z"
       id="path34" />
    <path
       d="M990 5772 c0 -14 94 -30 114 -20 15 8 16 12 5 19 -17 11 -119 12 -119 1z"
       id="path35" />
    <path
       d="M1155 5700 c-12 -19 5 -29 59 -35 55 -7 96 -1 96 15 0 16 -145 36 -155 20z"
       id="path36" />
    <path
       d="M1393 5620 c-13 -5 -23 -14 -23 -19 0 -29 101 -42 134 -18 17 12 14 15 -26 30 -49 19 -54 19 -85 7z"
       id="path37" />
    <path
       d="M1573 5529 c-20 -20 -16 -27 25 -38 53 -15 117 -14 131 3 10 12 8 17 -8 25 -33 18 -134 25 -148 10z"
       id="path38" />
    <path
       d="M27485 5479 c-192 -12 -298 -32 -344 -63 -20 -14 -59 -33 -86 -41 -76 -23 -176 -112 -234 -209 -41 -69 -66 -143 -73 -214 -6 -65 -2 -68 120 -82 141 -16 181 5 226 118 43 108 117 175 229 207 46 13 92 16 230 13 l172 -3 96 -46 c95 -46 96 -47 134 -115 35 -65 37 -74 37 -156 0 -154 -42 -190 -258 -213 -71 -8 -157 -23 -191 -34 -35 -10 -120 -24 -190 -31 -170 -15 -272 -42 -358 -92 -38 -23 -84 -50 -102 -60 -39 -23 -112 -103 -164 -179 -41 -61 -69 -172 -69 -274 0 -79 27 -183 61 -233 16 -23 35 -55 43 -70 28 -54 92 -110 165 -146 40 -19 79 -40 85 -45 29 -23 132 -39 286 -45 147 -5 172 -3 228 14 35 11 73 20 83 20 29 0 158 63 201 97 20 17 58 38 85 48 26 10 61 27 76 38 26 18 29 18 47 2 10 -9 28 -41 40 -70 32 -79 71 -102 187 -111 107 -8 117 -3 134 60 8 30 8 73 0 161 -24 263 -33 484 -33 784 0 210 -3 322 -10 335 -6 12 -12 64 -13 116 -2 118 -51 294 -86 305 -11 4 -46 33 -79 65 -56 55 -146 108 -213 124 -15 4 -80 11 -145 17 -64 5 -130 11 -147 13 -16 2 -93 0 -170 -5z m463 -1053 c54 -28 63 -78 45 -236 -5 -47 -17 -98 -25 -115 -8 -16 -21 -52 -28 -78 -9 -34 -22 -54 -44 -69 -17 -12 -51 -40 -76 -64 -55 -53 -192 -118 -280 -134 -76 -14 -279 -4 -326 15 -39 16 -170 121 -179 143 -4 9 -12 47 -20 84 -18 95 -7 139 47 196 24 26 50 59 57 74 15 30 80 62 151 73 25 4 63 14 85 22 22 8 96 18 165 23 106 7 133 12 174 34 28 15 67 26 90 27 23 1 52 5 66 9 39 12 69 11 98 -4z"
       id="path39" />
    <path
       d="M19140 5473 c-112 -8 -179 -26 -280 -74 -97 -47 -113 -59 -209 -157 -59 -62 -114 -128 -128 -157 -14 -27 -34 -59 -44 -70 -10 -12 -30 -63 -43 -116 -14 -52 -30 -107 -36 -123 -24 -65 -42 -249 -36 -372 16 -286 103 -503 282 -696 77 -84 105 -106 151 -125 30 -12 70 -34 88 -47 53 -41 236 -71 420 -69 177 1 281 19 356 61 30 17 69 33 87 37 39 8 207 150 238 201 12 19 31 45 42 57 11 12 38 66 60 120 l39 98 -36 30 c-20 16 -46 32 -59 36 -39 10 -175 -4 -219 -22 -36 -15 -46 -26 -76 -89 -79 -164 -258 -266 -468 -266 -155 0 -246 45 -378 186 -83 89 -101 119 -134 235 -14 46 -31 98 -38 116 -17 42 -1 74 49 98 32 15 82 18 392 23 444 7 430 7 695 3 136 -2 230 1 247 8 51 19 60 56 53 209 -5 104 -12 146 -26 174 -18 37 -41 118 -54 191 -3 23 -20 54 -41 76 -18 21 -41 58 -49 81 -22 62 -187 220 -255 244 -27 10 -60 26 -72 35 -43 34 -66 41 -189 56 -114 14 -217 16 -329 8z m233 -268 c65 -8 124 -18 130 -22 15 -8 103 -79 137 -110 14 -12 37 -32 53 -45 28 -24 77 -145 77 -193 0 -14 9 -43 19 -63 23 -46 15 -66 -36 -87 -30 -13 -109 -15 -482 -15 l-446 0 -52 25 c-56 25 -62 37 -39 71 8 11 26 57 41 101 14 44 35 89 46 99 12 11 29 35 39 55 23 45 91 106 127 115 16 4 54 20 85 36 97 49 138 53 301 33z"
       id="path40" />
    <path
       d="M21190 5470 c-74 -13 -103 -28 -151 -78 -25 -26 -66 -62 -92 -80 l-46 -32 -20 38 c-11 21 -22 54 -26 75 -4 20 -14 42 -23 49 -21 18 -188 14 -234 -5 -33 -14 -36 -19 -42 -70 -4 -31 -7 -179 -6 -329 1 -289 1 -464 0 -1065 -1 -404 1 -413 54 -449 32 -20 208 -23 232 -3 41 34 42 47 47 539 5 465 12 586 43 717 7 34 14 78 14 99 0 21 9 57 21 81 29 59 128 158 174 173 36 12 153 10 303 -6 77 -8 98 6 108 75 4 25 15 69 26 97 16 45 17 56 6 89 -12 36 -17 40 -86 61 -83 25 -233 37 -302 24z"
       id="path41" />
    <path
       d="M22269 5467 c-74 -9 -104 -18 -135 -39 -21 -14 -65 -38 -96 -52 -44 -21 -75 -48 -140 -120 -98 -110 -164 -222 -195 -326 -12 -41 -32 -102 -43 -135 -49 -137 -33 -601 25 -715 13 -25 37 -74 54 -110 17 -36 60 -105 97 -155 37 -49 77 -103 90 -120 12 -16 41 -40 65 -52 233 -116 315 -137 508 -131 118 4 132 7 214 41 55 22 105 51 132 76 39 36 47 39 82 34 58 -9 73 -27 73 -90 0 -29 -7 -70 -15 -90 -8 -19 -15 -55 -15 -78 0 -49 -25 -156 -46 -197 -12 -24 -126 -148 -135 -148 -2 0 -58 -16 -124 -35 -145 -42 -229 -45 -367 -14 -106 24 -143 41 -158 69 -6 11 -24 27 -40 35 -34 18 -48 40 -64 104 -10 40 -16 49 -56 68 -31 15 -74 24 -137 28 -89 7 -93 6 -117 -19 -39 -38 -35 -99 12 -209 38 -89 103 -183 133 -192 9 -3 34 -23 55 -44 32 -30 55 -42 124 -60 47 -13 103 -35 124 -49 l39 -27 231 3 c202 3 237 6 286 24 30 11 87 30 126 43 71 23 137 67 234 156 25 22 50 44 57 48 14 8 86 121 115 181 15 31 24 75 29 140 3 52 17 136 30 185 l23 90 0 905 c1 693 -2 910 -11 926 -18 31 -98 48 -191 40 -41 -3 -80 -11 -87 -16 -7 -6 -18 -31 -25 -56 -7 -25 -22 -56 -32 -69 l-19 -25 -42 21 c-23 12 -63 43 -88 70 -43 45 -52 50 -135 68 -114 25 -321 33 -445 18z m408 -285 c15 -12 58 -38 95 -57 54 -28 72 -44 88 -76 12 -22 36 -62 55 -87 18 -26 40 -69 48 -97 8 -27 23 -65 32 -83 26 -50 37 -171 32 -332 -4 -126 -9 -158 -36 -243 -42 -133 -60 -172 -114 -243 -54 -71 -96 -106 -172 -140 -183 -84 -447 -33 -569 110 -26 30 -55 75 -66 99 -11 24 -29 56 -41 71 -30 39 -49 153 -56 342 -6 172 8 340 32 383 27 50 44 87 61 134 11 30 27 54 44 64 15 8 35 29 45 45 10 18 37 38 73 54 31 14 66 34 77 44 37 34 67 40 207 37 125 -2 140 -4 165 -25z"
       id="path42" />
    <path
       d="M1766 5435 c-6 -17 17 -29 76 -40 35 -7 88 8 88 24 0 29 -153 43 -164 16z"
       id="path43" />
    <path
       d="M2005 5340 c-8 -13 40 -24 73 -15 25 7 25 8 7 15 -28 12 -73 12 -80 0z"
       id="path44" />
    <path
       d="M2182 5269 c-29 -11 -28 -23 4 -38 46 -20 145 4 118 29 -14 12 -97 18 -122 9z"
       id="path45" />
    <path
       d="M6020 4655 c-8 -2 -32 -6 -52 -10 -61 -10 -130 -72 -162 -146 -15 -35 -34 -76 -42 -91 -8 -15 -24 -53 -35 -85 -10 -31 -32 -77 -48 -102 -37 -59 -64 -178 -55 -240 4 -25 15 -64 24 -87 16 -35 24 -43 61 -52 50 -13 59 -8 91 49 25 45 35 50 83 42 43 -7 55 -30 55 -104 0 -37 7 -61 31 -99 17 -27 37 -50 45 -50 8 0 37 11 64 25 36 18 55 36 70 64 25 51 35 56 65 37 27 -18 36 -53 39 -146 1 -33 6 -64 11 -69 19 -16 109 -41 151 -41 38 0 46 4 80 45 39 48 65 55 118 35 25 -9 26 -12 26 -104 l0 -94 34 -16 c47 -22 120 -6 180 39 49 38 125 166 146 245 6 25 21 61 32 80 72 123 108 292 75 355 -8 17 -24 39 -36 49 -21 19 -22 19 -56 0 -20 -10 -52 -36 -72 -56 -41 -42 -71 -48 -97 -19 -14 16 -17 35 -14 111 3 89 2 93 -23 112 -19 14 -43 20 -90 20 -84 1 -101 -5 -123 -46 -10 -19 -28 -44 -40 -56 l-22 -20 -25 26 c-21 23 -24 35 -25 116 -2 68 -6 94 -18 106 -22 22 -91 42 -147 42 -42 0 -47 -3 -67 -38 -11 -21 -30 -46 -41 -56 -18 -16 -22 -16 -49 -2 -37 19 -40 29 -40 135 1 60 -3 86 -13 92 -13 8 -58 10 -89 4z"
       id="path46" />
    <g
       class="bubble"
       style="--dur:3.3s;--delay:0.1s;--dist:950px"
       id="g8">
      <path
         d="m 28942.197,23430.569 c -22,-4 -58,-8 -81,-8 -86,-2 -127,-26 -220,-129 -115,-130 -118,-138 -118,-297 0,-147 7,-172 73,-255 23,-29 41,-56 41,-61 0,-20 66,-71 130,-101 59,-28 77,-31 187,-36 120,-4 122,-4 183,26 71,36 200,143 224,187 31,58 66,179 66,230 0,95 -79,281 -142,333 -18,15 -40,35 -50,44 -28,28 -76,49 -146,64 -74,15 -89,16 -147,3 z"
         id="path8-5" />
    </g>
    <g
       class="bubble"
       style="--dur:3.8s;--delay:0.5s;--dist:1000px"
       id="g9">
      <path
         d="m 29895.746,22969.633 c -29.67,-5.134 -78.221,-10.268 -109.24,-10.268 -115.983,-2.567 -171.277,-33.371 -296.701,-165.572 -155.094,-166.856 -159.14,-177.124 -159.14,-381.202 0,-188.675 9.44,-220.763 98.451,-327.294 31.019,-37.222 55.294,-71.877 55.294,-78.294 0,-25.67 89.011,-91.129 175.324,-129.634 79.57,-35.938 103.845,-39.789 252.196,-46.206 161.837,-5.135 164.534,-5.135 246.802,33.371 95.753,46.206 269.728,183.541 302.096,240.015 41.807,74.444 89.01,229.748 89.01,295.207 0,121.933 -106.543,360.665 -191.507,427.408 -24.276,19.252 -53.946,44.922 -67.432,56.474 -37.762,35.938 -102.497,62.892 -196.902,82.144 -99.8,19.253 -120.029,20.537 -198.251,3.851 z"
         id="path8-2"
         style="stroke-width:1.31567" />
    </g>
    <g
       class="bubble"
       style="--dur:3.1s;--delay:0.9s;--dist:850px"
       id="g10">
      <path
         d="m 29113.13,22051.025 c -24.065,-4.378 -63.445,-8.756 -88.604,-8.756 -94.072,-2.189 -138.92,-28.457 -240.65,-141.19 -125.794,-142.286 -129.076,-151.042 -129.076,-325.068 0,-160.891 7.657,-188.254 79.852,-279.098 25.159,-31.74 44.849,-61.292 44.849,-66.764 0,-21.89 72.195,-77.71 142.202,-110.545 64.538,-30.646 84.228,-33.93 204.553,-39.402 131.264,-4.378 133.452,-4.378 200.177,28.457 77.665,39.402 218.773,156.514 245.026,204.672 33.91,63.481 72.195,195.916 72.195,251.735 0,103.978 -86.415,307.556 -155.329,364.47 -19.689,16.417 -43.754,38.307 -54.693,48.158 -30.628,30.646 -83.134,53.63 -159.704,70.048 -80.946,16.417 -97.354,17.512 -160.798,3.283 z"
         id="path8-37"
         style="stroke-width:1.09418" />
    </g>
    <g
       class="bubble"
       style="--dur:4.0s;--delay:0.2s;--dist:1100px"
       id="g11">
      <path
         d="m 31481.701,23886.482 c -45.306,-8.86 -119.442,-17.72 -166.806,-17.72 -177.104,-4.43 -261.537,-57.591 -453.054,-285.741 -236.825,-287.953 -243.002,-305.673 -243.002,-657.862 0,-325.61 14.416,-380.986 150.33,-564.833 47.366,-64.235 84.433,-124.041 84.433,-135.115 0,-44.301 135.918,-157.268 267.714,-223.719 121.502,-62.022 158.569,-68.666 385.097,-79.742 247.12,-8.86 251.239,-8.86 376.859,57.592 146.213,79.741 411.868,316.749 461.291,414.21 63.84,128.471 135.917,396.49 135.917,509.456 0,210.428 -162.687,622.423 -292.426,737.605 -37.068,33.225 -82.374,77.526 -102.967,97.461 -57.661,62.021 -156.51,108.537 -300.663,141.762 -152.391,33.226 -183.282,35.44 -302.723,6.646 z"
         id="path8-03"
         style="stroke-width:2.13576" />
    </g>
    <g
       class="bubble"
       style="--dur:3.4s;--delay:0.6s;--dist:900px"
       id="g12">
      <path
         d="m 31133.331,21863.643 c -30.26,-5.674 -79.776,-11.348 -111.412,-11.348 -118.29,-2.837 -174.684,-36.881 -302.602,-182.988 -158.178,-184.406 -162.304,-195.754 -162.304,-421.297 0,-208.522 9.628,-243.984 100.409,-361.72 31.635,-41.137 56.394,-79.437 56.394,-86.53 0,-28.37 90.78,-100.714 178.81,-143.269 81.152,-39.718 105.91,-43.973 257.211,-51.066 165.055,-5.674 167.806,-5.674 251.709,36.881 97.658,51.066 275.092,202.847 308.104,265.261 42.639,82.274 90.78,253.913 90.78,326.258 0,134.758 -108.661,398.6 -195.315,472.363 -24.759,21.278 -55.019,49.648 -68.774,62.415 -38.512,39.718 -104.535,69.507 -200.817,90.784 -101.784,21.279 -122.416,22.697 -202.193,4.256 z"
         id="path8-8"
         style="stroke-width:1.39682" />
    </g>
    <g
       class="bubble"
       style="--dur:2.6s;--delay:1.1s;--dist:650px"
       id="g13">
      <path
         d="m 30889.415,19280.528 c -11.675,-2.272 -30.779,-4.544 -42.984,-4.544 -45.638,-1.136 -67.396,-14.768 -116.749,-73.272 -61.027,-73.838 -62.619,-78.382 -62.619,-168.692 0,-83.495 3.714,-97.694 38.739,-144.837 12.205,-16.472 21.758,-31.808 21.758,-34.648 0,-11.36 35.024,-40.327 68.987,-57.367 31.31,-15.904 40.862,-17.608 99.236,-20.448 63.681,-2.272 64.743,-2.272 97.113,14.768 37.678,20.448 106.135,81.223 118.871,106.214 16.451,32.944 35.025,101.67 35.025,130.638 0,53.959 -41.923,159.605 -75.356,189.14 -9.552,8.521 -21.227,19.88 -26.534,24.992 -14.859,15.904 -40.331,27.832 -77.478,36.351 -39.27,8.521 -47.23,9.088 -78.009,1.705 z"
         id="path8-6"
         style="stroke-width:0.549015" />
    </g>
    <text
       xml:space="preserve"
       style="font-weight:300;font-size:400px;line-height:0;font-family:Helvetica;-inkscape-font-specification:'Helvetica Light';writing-mode:lr-tb;direction:ltr;fill:#ff5455;stroke:#000000;stroke-width:34.62;stroke-opacity:0"
       x="12597.608"
       y="-1890.3876"
       id="text84"
       transform="scale(1,-1)"><tspan
         sodipodi:role="line"
         id="tspan84"
         x="12597.608"
         y="-1890.3876"
         style="stroke-width:34.62" /></text>
    <text
       xml:space="preserve"
       style="font-weight:300;font-size:400px;line-height:0;font-family:Helvetica;-inkscape-font-specification:'Helvetica Light';writing-mode:lr-tb;direction:ltr;white-space:pre;inline-size:10616.3;fill:#6ab45e;stroke:#000000;stroke-width:34.62;stroke-opacity:0;fill-opacity:1"
       x="8281.6797"
       y="5128.3965"
       id="text85"
       transform="matrix(2.2831831,0,0,-3.7416925,-8576.4248,20541.586)"><tspan
         x="8281.6797"
         y="5128.3965"
         id="tspan4"><tspan
           dx="0 0 0 0 0 0 0 0 0 0 0 0 0 0 0 0 -0.00015258789 0.00018310547 0 0 0 -0.00012207031 0 0 0 0.00024414062 -0.00024414062 0.00024414062 0 0 -0.00024414062 0.00024414062 0 -0.00024414062 0.00024414062 -0.00024414062 0.00012207031 0 -0.00024414062 0 0.00033569336 -0.00030517578 0 0.00024414062 -0.00024414062 0.00024414062 0 -0.00024414062 0 0.00018310547 0 -0.00048828125 0.00048828125 -0.00048828125 0.00024414062 0.00012207031 0.00012207031 0.00012207031"
           id="tspan3">---- Synthetic Biology at the Cell/Material Interface ----</tspan></tspan></text>
    <g
       class="zap-group d1"
       transform="translate(1200, 5800)"
       id="g47">
      <path
         d="M0 0 L700 2100 L280 2100 L1120 4900 L490 1960 L910 1960 L0 0Z"
         fill="#FFD700"
         stroke="#FFA500"
         stroke-width="60"
         id="path47" />
    </g>
    <g
       class="zap-group d2"
       transform="translate(2400, 6800)"
       id="g48">
      <path
         d="M0 0 L630 1820 L210 1820 L980 4200 L420 1680 L810 1680 L0 0Z"
         fill="#FFEC3A"
         stroke="#FFD700"
         stroke-width="55"
         id="path48" />
    </g>
    <g
       class="zap-group d3"
       transform="translate(500, 4800)"
       id="g49">
      <path
         d="M0 0 L560 1540 L170 1540 L840 3640 L350 1400 L700 1400 L0 0Z"
         fill="#FFD700"
         stroke="#FFA500"
         stroke-width="50"
         id="path49" />
    </g>
  </g>
</svg>
